<svg width="175" height="355" viewBox="0 0 175 355" fill="none" xmlns="http://www.w3.org/2000/svg">
<path d="M83.4744 266.346L91.8156 221.792H51.7371L48.0751 242.543V221.792H7.79323V337.145H48.0751V290.149L55.6026 337.145H95.8845L83.4744 266.346ZM7.79323 195.548V216.706H48.0751V195.548H7.79323ZM52.7544 216.706H92.8328L96.9017 195.548H56.6198L52.7544 216.706Z" fill="#006EE6"/>
<path d="M4.67921 161.842C4.67921 168.352 6.71365 173.642 11.1894 177.304C15.4617 181.169 20.7513 183 27.0581 183H68.7641C74.8674 183 80.1569 181.169 84.6327 177.304C88.905 173.642 91.1429 168.352 91.1429 161.842V67.6472H50.4541V161.842H45.368V67.6472H4.67921V161.842ZM4.67921 62.5611H91.1429C91.1429 56.0509 88.905 50.9648 84.6327 47.0994C80.1569 43.4374 74.8674 41.403 68.7641 41.403H27.0581C20.7513 41.403 15.4617 43.4374 11.1894 47.0994C6.71365 50.9648 4.67921 56.0509 4.67921 62.5611Z" fill="#006EE6"/>
<rect x="121" y="286.038" width="54" height="51.9231" fill="#006EE6"/>
<path d="M131.143 234.281C130.463 234.185 129.467 234.137 128.156 234.139C126.844 234.14 125.655 234.396 124.587 234.907C123.495 235.418 122.645 236.111 122.039 236.986C120.997 238.517 120.477 240.824 120.48 243.908C120.483 246.968 121.045 249.675 122.164 252.029C123.259 254.36 124.803 256.313 126.796 257.889C130.806 261.066 136.26 262.651 143.156 262.644C149.688 262.637 154.895 261.017 158.777 257.783C162.829 254.428 164.852 249.897 164.846 244.19C164.84 238.581 163.61 234.211 161.154 231.081C160.424 230.135 159.634 229.273 158.783 228.497C159.001 227.769 159.644 227.173 160.712 226.71C161.076 226.564 161.562 226.491 162.169 226.49C162.752 226.49 163.626 226.926 164.793 227.799C165.935 228.648 167.041 229.897 168.111 231.547C170.689 235.478 171.981 240.188 171.987 245.676C171.995 253.544 169.61 259.812 164.831 264.479C160.149 269.098 153.874 271.411 146.006 271.419C141.198 271.424 136.863 270.664 133 269.138C129.138 267.612 125.857 265.527 123.159 262.883C120.436 260.239 118.345 257.157 116.884 253.638C115.424 250.094 114.691 246.658 114.688 243.332C114.685 239.981 114.961 237.297 115.517 235.281C116.074 233.265 116.837 231.588 117.807 230.252C119.795 227.579 122.441 226.24 125.743 226.237C128.269 226.234 130.055 227.167 131.101 229.036C131.466 229.667 131.649 230.347 131.649 231.075C131.651 232.581 131.482 233.649 131.143 234.281ZM151.088 218.998C148.125 219.001 145.466 218.713 143.11 218.132C140.754 217.552 138.677 216.753 136.879 215.735C135.081 214.717 133.549 213.516 132.285 212.134C130.997 210.751 129.951 209.271 129.148 207.693C127.567 204.611 126.774 201.224 126.77 197.533C126.765 192.798 128.485 188.777 131.93 185.471C135.714 181.8 140.715 179.961 146.931 179.955C155.09 179.946 161.443 182.162 165.988 186.601C169.902 190.458 171.862 195.082 171.867 200.473C171.873 206.106 169.899 210.625 165.944 214.029C162.135 217.336 157.183 218.992 151.088 218.998ZM165.928 198.33C165.926 196.703 165.548 195.246 164.794 193.96C164.016 192.674 162.958 191.582 161.622 190.685C158.851 188.891 155.257 187.996 150.837 188.001C145.98 188.006 141.853 188.957 138.455 190.855C134.548 192.996 132.596 196.07 132.601 200.076C132.604 203.306 133.845 205.891 136.324 207.831C138.949 209.893 142.617 210.921 147.328 210.916C153.228 210.91 157.89 209.606 161.311 207.004C164.392 204.669 165.931 201.778 165.928 198.33ZM166.562 142.854C170.087 146.614 171.852 150.753 171.857 155.269C171.862 160.247 170.166 164.304 166.77 167.441C163.034 170.844 157.875 172.549 151.294 172.556C143.888 172.564 137.863 170.215 133.22 165.508C128.893 161.118 126.727 155.923 126.72 149.925C126.718 147.521 127.116 145.214 127.915 143.003L117.388 143.014C115.689 143.016 114.608 143.187 114.147 143.528C113.371 144.087 112.983 144.998 112.984 146.261C112.985 146.795 113.046 147.329 113.168 147.863C113.266 148.373 113.266 148.737 113.169 148.956C113.048 149.15 112.89 149.308 112.696 149.43C111.895 149.916 110.875 149.31 109.635 147.612C107.665 144.943 106.679 142.309 106.676 139.711C106.673 136.967 108.165 135.399 111.151 135.007C112.05 134.909 112.997 134.86 113.992 134.859L156.282 134.815C160.022 134.811 162.353 134.663 163.275 134.37C164.197 134.078 164.804 133.737 165.095 133.348C165.362 132.935 165.495 132.425 165.494 131.818C165.494 131.211 165.396 130.713 165.201 130.325L164.727 129.233C164.654 128.917 164.799 128.638 165.163 128.395C165.915 127.884 166.595 127.81 167.202 128.174C167.81 128.537 168.393 129.083 168.953 129.811C169.512 130.539 169.998 131.352 170.412 132.25C172.189 136.182 172.228 139.12 170.531 141.065C169.706 142.013 168.383 142.609 166.562 142.854ZM135.31 142.996C133.491 145.377 132.583 148.146 132.586 151.303C132.59 155.092 133.99 158.162 136.785 160.515C139.774 163.037 143.843 164.295 148.991 164.29C157.175 164.282 162.223 161.945 164.137 157.281C164.718 155.823 165.008 154.414 165.006 153.054C165.005 151.67 164.895 150.517 164.675 149.594C164.456 148.672 164.163 147.81 163.798 147.009C163.068 145.407 162.18 144.06 161.135 142.969L135.31 142.996ZM151.497 122.216C148.559 122.22 145.948 121.919 143.665 121.314C141.381 120.709 139.341 119.898 137.543 118.88C135.72 117.838 134.129 116.625 132.767 115.242C131.406 113.835 130.275 112.331 129.375 110.729C127.575 107.574 126.673 104.467 126.67 101.407C126.667 98.3474 127.211 95.8942 128.301 94.0476C129.368 92.2009 130.799 90.6939 132.595 89.5264C136.017 87.3616 140.569 86.2763 146.251 86.2704C148.364 86.2682 149.445 87.1534 149.496 88.926L150.068 114.35C155.338 114.199 159.234 112.835 161.757 110.258C163.891 108.071 164.957 105.241 164.953 101.768C164.948 96.5956 163.863 92.3957 161.698 89.1683C161.698 88.9497 161.88 88.6824 162.244 88.3664C162.972 87.7585 163.603 87.4543 164.137 87.4538C165.302 87.4526 166.797 88.908 168.622 91.8201C170.714 95.1691 171.762 99.0776 171.766 103.546C171.773 109.374 169.92 113.953 166.208 117.284C162.569 120.566 157.665 122.21 151.497 122.216ZM145.369 114.136C145.022 107.143 144.566 100.745 144.002 94.9419C136.279 94.6828 132.421 97.358 132.427 102.967C132.43 106.1 133.647 108.661 136.077 110.649C138.313 112.468 141.411 113.631 145.369 114.136ZM139.551 53.1669C135.811 53.1708 133.336 54.7275 132.125 57.8371C131.737 58.8331 131.544 59.9139 131.545 61.0795C131.547 62.2208 131.645 63.2892 131.84 64.2846C132.035 65.2557 132.34 66.1175 132.753 66.8698C133.678 68.5687 135.002 69.4172 136.726 69.4154C138.378 69.4137 139.81 68.708 141.022 67.2983C142.308 65.7428 143.895 62.8515 145.785 58.6242C147.651 54.397 149.699 51.1408 151.931 48.8559C154.138 46.5467 156.687 45.3906 159.576 45.3876C162.83 45.3842 165.576 46.7169 167.813 49.3858C170.414 52.5156 171.718 56.8488 171.724 62.3854C171.731 69.1605 170.291 73.8487 167.404 76.45C166.385 77.3496 165.086 77.8001 163.508 77.8018C159.695 77.8058 157.472 76.8732 156.839 75.004C156.693 74.5428 156.619 74.1057 156.619 73.6929C156.618 72.5516 156.969 71.932 157.673 71.8341C163.744 71.2936 166.776 67.8908 166.769 61.6257C166.765 57.8617 165.706 55.3495 163.592 54.089C162.912 53.6769 162.086 53.4713 161.115 53.4723C160.143 53.4733 159.257 53.7899 158.457 54.4221C157.656 55.0301 156.916 55.8807 156.237 56.9742C155.534 58.0677 154.856 59.3676 154.202 60.8738L152.021 65.7206C148.629 73.1549 144.116 76.8749 138.483 76.8808C134.84 76.8845 131.924 75.2727 129.736 72.0453C127.668 68.9878 126.632 65.0428 126.627 60.2104C126.62 53.6539 128.037 49.5728 130.876 47.9672C131.604 47.5536 132.405 47.3463 133.28 47.3454C134.154 47.3445 134.943 47.3923 135.647 47.4887C136.327 47.5851 136.947 47.7059 137.505 47.851C138.574 48.0927 139.327 48.3712 139.765 48.6864C140.227 49.3173 140.458 50.2277 140.46 51.4176C140.461 52.5832 140.158 53.1663 139.551 53.1669Z" fill="#006EE6"/>
</svg>
